<svg width="190" height="48" viewBox="0 0 190 48" fill="none" xmlns="http://www.w3.org/2000/svg">
<g clip-path="url(#clip0_20_59)">
<path d="M22.9156 16.3636H35V14.1364C35 10.0789 31.8356 6.7606 27.8401 6.51462L22.9156 16.3636Z" fill="#2C9CF2"/>
<path d="M25.2169 6.5H15.7766L10.8448 16.3636H20.285L25.2169 6.5Z" fill="#2C9CF2"/>
<path d="M7.63636 6.5H13.1461L8.21426 16.3636H0V14.1364C0 9.91892 3.41892 6.5 7.63636 6.5Z" fill="#2C9CF2"/>
<path fill-rule="evenodd" clip-rule="evenodd" d="M0 18.5909V33.8636C0 38.0811 3.41892 41.5 7.63636 41.5H27.3636C31.5811 41.5 35 38.0811 35 33.8636V18.5909H0ZM22.9721 28.0467C24.31 28.7676 24.31 30.6869 22.9721 31.4079L14.5874 35.926C13.3155 36.6114 11.7727 35.6902 11.7727 34.2454V25.2091C11.7727 23.7643 13.3155 22.8431 14.5874 23.5285L22.9721 28.0467Z" fill="#2C9CF2"/>
<path d="M58.44 35L53.768 26.52H52.456V35H46.984V12.536H56.168C57.9387 12.536 59.4427 12.8453 60.68 13.464C61.9387 14.0827 62.8773 14.936 63.496 16.024C64.1147 17.0907 64.424 18.2853 64.424 19.608C64.424 21.1013 63.9973 22.4347 63.144 23.608C62.312 24.7813 61.0747 25.6133 59.432 26.104L64.616 35H58.44ZM52.456 22.648H55.848C56.8507 22.648 57.5973 22.4027 58.088 21.912C58.6 21.4213 58.856 20.728 58.856 19.832C58.856 18.9787 58.6 18.3067 58.088 17.816C57.5973 17.3253 56.8507 17.08 55.848 17.08H52.456V22.648ZM84.691 25.784C84.691 26.296 84.659 26.8293 84.595 27.384H72.211C72.2963 28.4933 72.6483 29.3467 73.267 29.944C73.907 30.52 74.6857 30.808 75.603 30.808C76.9683 30.808 77.9177 30.232 78.451 29.08H84.275C83.9763 30.2533 83.4323 31.3093 82.643 32.248C81.875 33.1867 80.9043 33.9227 79.731 34.456C78.5577 34.9893 77.2457 35.256 75.795 35.256C74.0457 35.256 72.4883 34.8827 71.123 34.136C69.7577 33.3893 68.691 32.3227 67.923 30.936C67.155 29.5493 66.771 27.928 66.771 26.072C66.771 24.216 67.1443 22.5947 67.891 21.208C68.659 19.8213 69.7257 18.7547 71.091 18.008C72.4563 17.2613 74.0243 16.888 75.795 16.888C77.523 16.888 79.059 17.2507 80.403 17.976C81.747 18.7013 82.7923 19.736 83.539 21.08C84.307 22.424 84.691 23.992 84.691 25.784ZM79.091 24.344C79.091 23.4053 78.771 22.6587 78.131 22.104C77.491 21.5493 76.691 21.272 75.731 21.272C74.8137 21.272 74.035 21.5387 73.395 22.072C72.7763 22.6053 72.3923 23.3627 72.243 24.344H79.091ZM104.41 25.784C104.41 26.296 104.378 26.8293 104.314 27.384H91.9298C92.0151 28.4933 92.3671 29.3467 92.9858 29.944C93.6258 30.52 94.4044 30.808 95.3218 30.808C96.6871 30.808 97.6364 30.232 98.1698 29.08H103.994C103.695 30.2533 103.151 31.3093 102.362 32.248C101.594 33.1867 100.623 33.9227 99.4498 34.456C98.2764 34.9893 96.9644 35.256 95.5138 35.256C93.7644 35.256 92.2071 34.8827 90.8418 34.136C89.4764 33.3893 88.4098 32.3227 87.6418 30.936C86.8738 29.5493 86.4898 27.928 86.4898 26.072C86.4898 24.216 86.8631 22.5947 87.6098 21.208C88.3778 19.8213 89.4444 18.7547 90.8098 18.008C92.1751 17.2613 93.7431 16.888 95.5138 16.888C97.2418 16.888 98.7778 17.2507 100.122 17.976C101.466 18.7013 102.511 19.736 103.258 21.08C104.026 22.424 104.41 23.992 104.41 25.784ZM98.8098 24.344C98.8098 23.4053 98.4898 22.6587 97.8498 22.104C97.2098 21.5493 96.4098 21.272 95.4498 21.272C94.5324 21.272 93.7538 21.5387 93.1138 22.072C92.4951 22.6053 92.1111 23.3627 91.9618 24.344H98.8098ZM112.769 11.32V35H107.297V11.32H112.769Z" fill="#FDFFFC"/>
<path d="M124.862 35.224C123.219 35.224 121.747 34.9573 120.446 34.424C119.145 33.8907 118.099 33.1013 117.31 32.056C116.542 31.0107 116.137 29.752 116.094 28.28H121.918C122.003 29.112 122.291 29.752 122.782 30.2C123.273 30.6267 123.913 30.84 124.702 30.84C125.513 30.84 126.153 30.6587 126.622 30.296C127.091 29.912 127.326 29.3893 127.326 28.728C127.326 28.1733 127.134 27.7147 126.75 27.352C126.387 26.9893 125.929 26.6907 125.374 26.456C124.841 26.2213 124.073 25.9547 123.07 25.656C121.619 25.208 120.435 24.76 119.518 24.312C118.601 23.864 117.811 23.2027 117.15 22.328C116.489 21.4533 116.158 20.312 116.158 18.904C116.158 16.8133 116.915 15.1813 118.43 14.008C119.945 12.8133 121.918 12.216 124.35 12.216C126.825 12.216 128.819 12.8133 130.334 14.008C131.849 15.1813 132.659 16.824 132.766 18.936H126.846C126.803 18.2107 126.537 17.6453 126.046 17.24C125.555 16.8133 124.926 16.6 124.158 16.6C123.497 16.6 122.963 16.7813 122.558 17.144C122.153 17.4853 121.95 17.9867 121.95 18.648C121.95 19.3733 122.291 19.9387 122.974 20.344C123.657 20.7493 124.723 21.1867 126.174 21.656C127.625 22.1467 128.798 22.616 129.694 23.064C130.611 23.512 131.401 24.1627 132.062 25.016C132.723 25.8693 133.054 26.968 133.054 28.312C133.054 29.592 132.723 30.7547 132.062 31.8C131.422 32.8453 130.483 33.6773 129.246 34.296C128.009 34.9147 126.547 35.224 124.862 35.224ZM141.894 19.672C142.427 18.84 143.163 18.168 144.102 17.656C145.04 17.144 146.139 16.888 147.398 16.888C148.87 16.888 150.203 17.2613 151.398 18.008C152.592 18.7547 153.531 19.8213 154.214 21.208C154.918 22.5947 155.27 24.2053 155.27 26.04C155.27 27.8747 154.918 29.496 154.214 30.904C153.531 32.2907 152.592 33.368 151.398 34.136C150.203 34.8827 148.87 35.256 147.398 35.256C146.16 35.256 145.062 35 144.102 34.488C143.163 33.976 142.427 33.3147 141.894 32.504V43.512H136.422V17.144H141.894V19.672ZM149.702 26.04C149.702 24.6747 149.318 23.608 148.55 22.84C147.803 22.0507 146.875 21.656 145.766 21.656C144.678 21.656 143.75 22.0507 142.982 22.84C142.235 23.6293 141.862 24.7067 141.862 26.072C141.862 27.4373 142.235 28.5147 142.982 29.304C143.75 30.0933 144.678 30.488 145.766 30.488C146.854 30.488 147.782 30.0933 148.55 29.304C149.318 28.4933 149.702 27.4053 149.702 26.04ZM166.268 35.256C164.519 35.256 162.94 34.8827 161.532 34.136C160.146 33.3893 159.047 32.3227 158.236 30.936C157.447 29.5493 157.052 27.928 157.052 26.072C157.052 24.2373 157.458 22.6267 158.268 21.24C159.079 19.832 160.188 18.7547 161.596 18.008C163.004 17.2613 164.583 16.888 166.332 16.888C168.082 16.888 169.66 17.2613 171.068 18.008C172.476 18.7547 173.586 19.832 174.396 21.24C175.207 22.6267 175.612 24.2373 175.612 26.072C175.612 27.9067 175.196 29.528 174.364 30.936C173.554 32.3227 172.434 33.3893 171.004 34.136C169.596 34.8827 168.018 35.256 166.268 35.256ZM166.268 30.52C167.314 30.52 168.199 30.136 168.924 29.368C169.671 28.6 170.044 27.5013 170.044 26.072C170.044 24.6427 169.682 23.544 168.956 22.776C168.252 22.008 167.378 21.624 166.332 21.624C165.266 21.624 164.38 22.008 163.676 22.776C162.972 23.5227 162.62 24.6213 162.62 26.072C162.62 27.5013 162.962 28.6 163.644 29.368C164.348 30.136 165.223 30.52 166.268 30.52ZM188.467 30.36V35H185.683C183.699 35 182.153 34.52 181.043 33.56C179.934 32.5787 179.379 30.9893 179.379 28.792V21.688H177.203V17.144H179.379V12.792H184.851V17.144H188.435V21.688H184.851V28.856C184.851 29.3893 184.979 29.7733 185.235 30.008C185.491 30.2427 185.918 30.36 186.515 30.36H188.467Z" fill="#2C9CF2"/>
</g>
<defs>
<clipPath id="clip0_20_59">
<rect width="190" height="48" fill="white"/>
</clipPath>
</defs>
</svg>
