<svg width="35" height="36" viewBox="0 0 35 36" fill="none" xmlns="http://www.w3.org/2000/svg">
<path d="M22.9156 10.3636H35V8.13636C35 4.07894 31.8356 0.760601 27.8401 0.514624L22.9156 10.3636Z" fill="#2C9CF2"/>
<path d="M25.2169 0.5H15.7766L10.8448 10.3636H20.285L25.2169 0.5Z" fill="#2C9CF2"/>
<path d="M7.63636 0.5H13.1461L8.21426 10.3636H0V8.13636C0 3.91892 3.41892 0.5 7.63636 0.5Z" fill="#2C9CF2"/>
<path fill-rule="evenodd" clip-rule="evenodd" d="M0 12.5909V27.8636C0 32.0811 3.41892 35.5 7.63636 35.5H27.3636C31.5811 35.5 35 32.0811 35 27.8636V12.5909H0ZM22.9721 22.0467C24.31 22.7676 24.31 24.6869 22.9721 25.4079L14.5874 29.926C13.3155 30.6114 11.7727 29.6902 11.7727 28.2454V19.2091C11.7727 17.7643 13.3155 16.8431 14.5874 17.5285L22.9721 22.0467Z" fill="#2C9CF2"/>
</svg>
